<mxfile host="app.diagrams.net" modified="2023-09-30T10:18:26.909Z" agent="Mozilla/5.0 (Macintosh; Intel Mac OS X 10_15_7) AppleWebKit/537.36 (KHTML, like Gecko) Chrome/117.0.0.0 Safari/537.36" etag="V9wlGwX8TMeHHXbXfexT" version="22.0.0" type="device">
  <diagram name="PÃ¡gina-1" id="AmvSPF7vPvMXSVfGplfc">
    <mxGraphModel dx="1490" dy="325" grid="1" gridSize="10" guides="1" tooltips="1" connect="1" arrows="1" fold="1" page="1" pageScale="1" pageWidth="827" pageHeight="1169" math="0" shadow="0">
      <root>
        <mxCell id="0" />
        <mxCell id="1" parent="0" />
        <mxCell id="BsaJ-04J7xx6-L0LMnQ9-10" style="edgeStyle=orthogonalEdgeStyle;rounded=0;orthogonalLoop=1;jettySize=auto;html=1;exitX=1;exitY=0.5;exitDx=0;exitDy=0;" edge="1" parent="1" source="BsaJ-04J7xx6-L0LMnQ9-6" target="BsaJ-04J7xx6-L0LMnQ9-7">
          <mxGeometry relative="1" as="geometry" />
        </mxCell>
        <mxCell id="BsaJ-04J7xx6-L0LMnQ9-6" value="Proxy" style="whiteSpace=wrap;html=1;aspect=fixed;" vertex="1" parent="1">
          <mxGeometry x="120" y="170" width="80" height="80" as="geometry" />
        </mxCell>
        <mxCell id="BsaJ-04J7xx6-L0LMnQ9-11" style="edgeStyle=orthogonalEdgeStyle;rounded=0;orthogonalLoop=1;jettySize=auto;html=1;exitX=1;exitY=0.5;exitDx=0;exitDy=0;entryX=0;entryY=0.5;entryDx=0;entryDy=0;" edge="1" parent="1" source="BsaJ-04J7xx6-L0LMnQ9-7" target="BsaJ-04J7xx6-L0LMnQ9-8">
          <mxGeometry relative="1" as="geometry" />
        </mxCell>
        <mxCell id="BsaJ-04J7xx6-L0LMnQ9-7" value="Backend" style="whiteSpace=wrap;html=1;aspect=fixed;" vertex="1" parent="1">
          <mxGeometry x="290" y="170" width="80" height="80" as="geometry" />
        </mxCell>
        <mxCell id="BsaJ-04J7xx6-L0LMnQ9-8" value="BDD" style="whiteSpace=wrap;html=1;aspect=fixed;" vertex="1" parent="1">
          <mxGeometry x="450" y="170" width="80" height="80" as="geometry" />
        </mxCell>
        <mxCell id="BsaJ-04J7xx6-L0LMnQ9-12" value="172.16.12.77&lt;br&gt;&lt;br&gt;" style="text;html=1;align=center;verticalAlign=middle;resizable=0;points=[];autosize=1;strokeColor=none;fillColor=none;" vertex="1" parent="1">
          <mxGeometry x="140" y="140" width="90" height="40" as="geometry" />
        </mxCell>
        <mxCell id="BsaJ-04J7xx6-L0LMnQ9-13" value="172.16.12.78" style="text;html=1;align=center;verticalAlign=middle;resizable=0;points=[];autosize=1;strokeColor=none;fillColor=none;" vertex="1" parent="1">
          <mxGeometry x="245" y="140" width="90" height="30" as="geometry" />
        </mxCell>
        <mxCell id="BsaJ-04J7xx6-L0LMnQ9-14" value="172.16.13.77" style="text;html=1;align=center;verticalAlign=middle;resizable=0;points=[];autosize=1;strokeColor=none;fillColor=none;" vertex="1" parent="1">
          <mxGeometry x="340" y="140" width="90" height="30" as="geometry" />
        </mxCell>
        <mxCell id="BsaJ-04J7xx6-L0LMnQ9-15" value="172.16.13.78" style="text;html=1;align=center;verticalAlign=middle;resizable=0;points=[];autosize=1;strokeColor=none;fillColor=none;" vertex="1" parent="1">
          <mxGeometry x="420" y="140" width="90" height="30" as="geometry" />
        </mxCell>
        <mxCell id="BsaJ-04J7xx6-L0LMnQ9-18" value="http://10.6.131.137/" style="text;html=1;align=center;verticalAlign=middle;resizable=0;points=[];autosize=1;strokeColor=none;fillColor=none;" vertex="1" parent="1">
          <mxGeometry x="-10" y="188" width="130" height="30" as="geometry" />
        </mxCell>
      </root>
    </mxGraphModel>
  </diagram>
</mxfile>
